# xmcd
# 
# Track frame offsets:
#     150
#     11365
#     22897
#     35327
#     44950
#     58352
#     68107
#     82477
#     93555
#     104905
#     116727
#     129645
#     140707
#     152995
#     163482
#     173735
#     189760
#     199697
# 
# Disc length: 2805
# 
# Revision: 4
# Processed by: cddbd v1.5.2PL0 Copyright (c) Steve Scherf et al.
# Submitted via: fre:ac v1.0.31
# 
DISCID=120af312
DTITLE=60's - For The Love Of Rock'N" 'Roll
DYEAR=0
DGENRE=Rock/Pop
TTITLE0=April Love
TTITLE1=Only You
TTITLE2=Spanish Harlem
TTITLE3=Feel So Fine
TTITLE4=Everlasting Love (Live)
TTITLE5=I Love How You Love Me
TTITLE6=Searchin'
TTITLE7=Personality
TTITLE8=I'll Take You Home
TTITLE9=I'm Gonna Make You Mine
TTITLE10=Never Be Anyone Else But You
TTITLE11=Endlessly
TTITLE12=When You Ask About Love
TTITLE13=Cradle Of Love
TTITLE14=Something Else
TTITLE15=Little Egypt
TTITLE16=Lavender Blue
TTITLE17=Coast To Coast
EXTD=
EXTT0=
EXTT1=
EXTT2=
EXTT3=
EXTT4=
EXTT5=
EXTT6=
EXTT7=
EXTT8=
EXTT9=
EXTT10=
EXTT11=
EXTT12=
EXTT13=
EXTT14=
EXTT15=
EXTT16=
EXTT17=
PLAYORDER=
